<?xml version="1.0" encoding="us-ascii" standalone="no"?>
<svg xmlns="http://www.w3.org/2000/svg" contentStyleType="text/css" height="466px" preserveAspectRatio="none"
     style="width:471px;height:466px;background:#FFFFFF;" version="1.1" viewBox="0 0 471 466" width="471px"
     zoomAndPan="magnify"><defs/><g><!--class bookings--><g id="elem_bookings"><rect
        fill="#FFFFFF" height="125.4844" id="bookings" rx="2.5" ry="2.5" style="stroke:#000000;stroke-width:1.0;" width="184" x="12" y="149"/><ellipse cx="67.25" cy="163" fill="#FFFFFF" rx="9" ry="9" style="stroke:#000000;stroke-width:1.0;"/><path d="M69.5938,158.6719 C68.6563,158.2344 68.0625,158.0938 67.1875,158.0938 C64.5625,158.0938 62.5625,160.1719 62.5625,162.8906 L62.5625,164.0156 C62.5625,166.5938 64.6719,168.4844 67.5625,168.4844 C68.7813,168.4844 69.9375,168.1875 70.6875,167.6406 C71.2656,167.2344 71.5938,166.7813 71.5938,166.3906 C71.5938,165.9375 71.2031,165.5469 70.7344,165.5469 C70.5156,165.5469 70.3125,165.625 70.125,165.8125 C69.6719,166.2969 69.6719,166.2969 69.4844,166.3906 C69.0625,166.6563 68.375,166.7813 67.6094,166.7813 C65.5625,166.7813 64.2656,165.6875 64.2656,163.9844 L64.2656,162.8906 C64.2656,161.1094 65.5156,159.7969 67.25,159.7969 C67.8281,159.7969 68.4375,159.9531 68.9063,160.2031 C69.3906,160.4844 69.5625,160.7031 69.6563,161.1094 C69.7188,161.5156 69.75,161.6406 69.8906,161.7656 C70.0313,161.9063 70.2656,162.0156 70.4844,162.0156 C70.75,162.0156 71.0156,161.875 71.1875,161.6563 C71.2969,161.5 71.3281,161.3125 71.3281,160.8906 L71.3281,159.4688 C71.3281,159.0313 71.3125,158.9063 71.2188,158.75 C71.0625,158.4844 70.7813,158.3438 70.4844,158.3438 C70.1875,158.3438 69.9844,158.4375 69.7656,158.75 L69.5938,158.6719 Z " fill="#000000"/><text fill="#000000" font-family="Verdana" font-size="14" lengthAdjust="spacing" textLength="66" x="84.75" y="167.8467">bookings</text><line style="stroke:#000000;stroke-width:1.0;" x1="13" x2="195" y1="177" y2="177"/><text fill="#000000" font-family="Verdana" font-size="14" lengthAdjust="spacing" textLength="154" x="18" y="193.9951">employee_id: varchar</text><text fill="#000000" font-family="Verdana" font-size="14" lengthAdjust="spacing" textLength="75" x="18" y="210.292">date: date</text><text fill="#000000" font-family="Verdana" font-size="14" lengthAdjust="spacing" textLength="172" x="18" y="226.5889">main_customer: varchar</text><text fill="#000000" font-family="Verdana" font-size="14" lengthAdjust="spacing" textLength="121" x="18" y="242.8857">flight_id: varchar</text><text fill="#000000" font-family="Verdana" font-size="14" lengthAdjust="spacing" textLength="75" x="18" y="259.1826">id: varchar</text><line style="stroke:#000000;stroke-width:1.0;" x1="13" x2="195" y1="266.4844" y2="266.4844"/></g><!--class customers--><g id="elem_customers"><rect
        fill="#FFFFFF" height="125.4844" id="customers" rx="2.5" ry="2.5" style="stroke:#000000;stroke-width:1.0;" width="151" x="173.5" y="334"/><ellipse cx="208.1" cy="348" fill="#FFFFFF" rx="9" ry="9" style="stroke:#000000;stroke-width:1.0;"/><path d="M210.4438,343.6719 C209.5063,343.2344 208.9125,343.0938 208.0375,343.0938 C205.4125,343.0938 203.4125,345.1719 203.4125,347.8906 L203.4125,349.0156 C203.4125,351.5938 205.5219,353.4844 208.4125,353.4844 C209.6313,353.4844 210.7875,353.1875 211.5375,352.6406 C212.1156,352.2344 212.4438,351.7813 212.4438,351.3906 C212.4438,350.9375 212.0531,350.5469 211.5844,350.5469 C211.3656,350.5469 211.1625,350.625 210.975,350.8125 C210.5219,351.2969 210.5219,351.2969 210.3344,351.3906 C209.9125,351.6563 209.225,351.7813 208.4594,351.7813 C206.4125,351.7813 205.1156,350.6875 205.1156,348.9844 L205.1156,347.8906 C205.1156,346.1094 206.3656,344.7969 208.1,344.7969 C208.6781,344.7969 209.2875,344.9531 209.7563,345.2031 C210.2406,345.4844 210.4125,345.7031 210.5063,346.1094 C210.5688,346.5156 210.6,346.6406 210.7406,346.7656 C210.8813,346.9063 211.1156,347.0156 211.3344,347.0156 C211.6,347.0156 211.8656,346.875 212.0375,346.6563 C212.1469,346.5 212.1781,346.3125 212.1781,345.8906 L212.1781,344.4688 C212.1781,344.0313 212.1625,343.9063 212.0688,343.75 C211.9125,343.4844 211.6313,343.3438 211.3344,343.3438 C211.0375,343.3438 210.8344,343.4375 210.6156,343.75 L210.4438,343.6719 Z " fill="#000000"/><text fill="#000000" font-family="Verdana" font-size="14" lengthAdjust="spacing" textLength="75" x="224.9" y="352.8467">customers</text><line style="stroke:#000000;stroke-width:1.0;" x1="174.5" x2="323.5" y1="362" y2="362"/><text fill="#000000" font-family="Verdana" font-size="14" lengthAdjust="spacing" textLength="139" x="179.5" y="378.9951">first_name: varchar</text><text fill="#000000" font-family="Verdana" font-size="14" lengthAdjust="spacing" textLength="135" x="179.5" y="395.292">last_name: varchar</text><text fill="#000000" font-family="Verdana" font-size="14" lengthAdjust="spacing" textLength="70" x="179.5" y="411.5889">dob: date</text><text fill="#000000" font-family="Verdana" font-size="14" lengthAdjust="spacing" textLength="101" x="179.5" y="427.8857">email: varchar</text><text fill="#000000" font-family="Verdana" font-size="14" lengthAdjust="spacing" textLength="75" x="179.5" y="444.1826">id: varchar</text><line style="stroke:#000000;stroke-width:1.0;" x1="174.5" x2="323.5" y1="451.4844" y2="451.4844"/></g><!--class customers_bookings--><g id="elem_customers_bookings"><rect
        fill="#FFFFFF" height="76.5938" id="customers_bookings" rx="2.5" ry="2.5" style="stroke:#000000;stroke-width:1.0;" width="176" x="88" y="12"/><ellipse cx="101" cy="26" fill="#FFFFFF" rx="9" ry="9" style="stroke:#000000;stroke-width:1.0;"/><path d="M103.3438,21.6719 C102.4063,21.2344 101.8125,21.0938 100.9375,21.0938 C98.3125,21.0938 96.3125,23.1719 96.3125,25.8906 L96.3125,27.0156 C96.3125,29.5938 98.4219,31.4844 101.3125,31.4844 C102.5313,31.4844 103.6875,31.1875 104.4375,30.6406 C105.0156,30.2344 105.3438,29.7813 105.3438,29.3906 C105.3438,28.9375 104.9531,28.5469 104.4844,28.5469 C104.2656,28.5469 104.0625,28.625 103.875,28.8125 C103.4219,29.2969 103.4219,29.2969 103.2344,29.3906 C102.8125,29.6563 102.125,29.7813 101.3594,29.7813 C99.3125,29.7813 98.0156,28.6875 98.0156,26.9844 L98.0156,25.8906 C98.0156,24.1094 99.2656,22.7969 101,22.7969 C101.5781,22.7969 102.1875,22.9531 102.6563,23.2031 C103.1406,23.4844 103.3125,23.7031 103.4063,24.1094 C103.4688,24.5156 103.5,24.6406 103.6406,24.7656 C103.7813,24.9063 104.0156,25.0156 104.2344,25.0156 C104.5,25.0156 104.7656,24.875 104.9375,24.6563 C105.0469,24.5 105.0781,24.3125 105.0781,23.8906 L105.0781,22.4688 C105.0781,22.0313 105.0625,21.9063 104.9688,21.75 C104.8125,21.4844 104.5313,21.3438 104.2344,21.3438 C103.9375,21.3438 103.7344,21.4375 103.5156,21.75 L103.3438,21.6719 Z " fill="#000000"/><text fill="#000000" font-family="Verdana" font-size="14" lengthAdjust="spacing" textLength="148" x="113" y="30.8467">customers_bookings</text><line style="stroke:#000000;stroke-width:1.0;" x1="89" x2="263" y1="40" y2="40"/><text fill="#000000" font-family="Verdana" font-size="14" lengthAdjust="spacing" textLength="150" x="94" y="56.9951">customer_id: varchar</text><text fill="#000000" font-family="Verdana" font-size="14" lengthAdjust="spacing" textLength="141" x="94" y="73.292">booking_id: varchar</text><line style="stroke:#000000;stroke-width:1.0;" x1="89" x2="263" y1="80.5938" y2="80.5938"/></g><!--class tickets--><g id="elem_tickets"><rect
        fill="#FFFFFF" height="125.4844" id="tickets" rx="2.5" ry="2.5" style="stroke:#000000;stroke-width:1.0;" width="162" x="302" y="149"/><ellipse cx="353.75" cy="163" fill="#FFFFFF" rx="9" ry="9" style="stroke:#000000;stroke-width:1.0;"/><path d="M356.0938,158.6719 C355.1563,158.2344 354.5625,158.0938 353.6875,158.0938 C351.0625,158.0938 349.0625,160.1719 349.0625,162.8906 L349.0625,164.0156 C349.0625,166.5938 351.1719,168.4844 354.0625,168.4844 C355.2813,168.4844 356.4375,168.1875 357.1875,167.6406 C357.7656,167.2344 358.0938,166.7813 358.0938,166.3906 C358.0938,165.9375 357.7031,165.5469 357.2344,165.5469 C357.0156,165.5469 356.8125,165.625 356.625,165.8125 C356.1719,166.2969 356.1719,166.2969 355.9844,166.3906 C355.5625,166.6563 354.875,166.7813 354.1094,166.7813 C352.0625,166.7813 350.7656,165.6875 350.7656,163.9844 L350.7656,162.8906 C350.7656,161.1094 352.0156,159.7969 353.75,159.7969 C354.3281,159.7969 354.9375,159.9531 355.4063,160.2031 C355.8906,160.4844 356.0625,160.7031 356.1563,161.1094 C356.2188,161.5156 356.25,161.6406 356.3906,161.7656 C356.5313,161.9063 356.7656,162.0156 356.9844,162.0156 C357.25,162.0156 357.5156,161.875 357.6875,161.6563 C357.7969,161.5 357.8281,161.3125 357.8281,160.8906 L357.8281,159.4688 C357.8281,159.0313 357.8125,158.9063 357.7188,158.75 C357.5625,158.4844 357.2813,158.3438 356.9844,158.3438 C356.6875,158.3438 356.4844,158.4375 356.2656,158.75 L356.0938,158.6719 Z " fill="#000000"/><text fill="#000000" font-family="Verdana" font-size="14" lengthAdjust="spacing" textLength="51" x="371.25" y="167.8467">tickets</text><line style="stroke:#000000;stroke-width:1.0;" x1="303" x2="463" y1="177" y2="177"/><text fill="#000000" font-family="Verdana" font-size="14" lengthAdjust="spacing" textLength="121" x="308" y="193.9951">flight_id: varchar</text><text fill="#000000" font-family="Verdana" font-size="14" lengthAdjust="spacing" textLength="150" x="308" y="210.292">customer_id: varchar</text><text fill="#000000" font-family="Verdana" font-size="14" lengthAdjust="spacing" textLength="99" x="308" y="226.5889">price: integer</text><text fill="#000000" font-family="Verdana" font-size="14" lengthAdjust="spacing" textLength="113" x="308" y="242.8857">seat_id: varchar</text><text fill="#000000" font-family="Verdana" font-size="14" lengthAdjust="spacing" textLength="75" x="308" y="259.1826">id: varchar</text><line style="stroke:#000000;stroke-width:1.0;" x1="303" x2="463" y1="266.4844" y2="266.4844"/></g><!--link bookings to customers--><g id="link_bookings_customers"><path
        d="M184.75,274.133 C184.75,274.133 184.75,313.932 184.75,313.932 " fill="none" id="bookings-to-customers" style="stroke:#595959;stroke-width:1.0;"/><polygon fill="none" points="191.75,313.932,184.75,333.932,177.75,313.932,191.75,313.932" style="stroke:#595959;stroke-width:1.0;"/><text fill="#000000" font-family="Verdana" font-size="13" lengthAdjust="spacing" textLength="116" x="67.75" y="290.0989">main_customer:id</text></g><!--link customers_bookings to bookings--><g id="link_customers_bookings_bookings"><path
        d="M142,89.064 C142,89.064 142,128.735 142,128.735 " fill="none" id="customers_bookings-to-bookings" style="stroke:#595959;stroke-width:1.0;"/><polygon fill="none" points="149,128.735,142,148.735,135,128.734,149,128.735" style="stroke:#595959;stroke-width:1.0;"/><text fill="#000000" font-family="Verdana" font-size="13" lengthAdjust="spacing" textLength="84" x="57" y="104.9659">booking_id:id</text></g><!--link customers_bookings to customers--><g id="link_customers_bookings_customers"><path d="M230,89.183 C230,89.183 230,313.846 230,313.846 " fill="none" id="customers_bookings-to-customers" style="stroke:#595959;stroke-width:1.0;"/><polygon fill="none" points="237,313.846,230,333.846,223,313.846,237,313.846" style="stroke:#595959;stroke-width:1.0;"/><text fill="#000000" font-family="Verdana" font-size="13" lengthAdjust="spacing" textLength="95" x="206.75" y="214.5819">customer_id:id</text></g><!--link tickets to customers--><g id="link_tickets_customers"><path d="M313.25,274.133 C313.25,274.133 313.25,313.932 313.25,313.932 " fill="none" id="tickets-to-customers" style="stroke:#595959;stroke-width:1.0;"/><polygon fill="none" points="320.25,313.932,313.25,333.932,306.25,313.932,320.25,313.932" style="stroke:#595959;stroke-width:1.0;"/><text fill="#000000" font-family="Verdana" font-size="13" lengthAdjust="spacing" textLength="95" x="217.25" y="290.0989">customer_id:id</text></g><!--SRC=[dL7RQiCm37ttLsZTw_guX-PNncPSMqr4VSDM1sNit-k4f7E2nouo62IaSuwE7dX0Xn2j8YyuHE00ny0S71XAg9c25_bCFgga75ZooDU8418FGGXjLSvb89IEFiE7001qqOOheYJJmRjAUb1fh1l5s4t_cBb2AFKb5oPCgxwJfNxWxNITViwyo_XCVAAKMNhbS3LPMXjL4uvVOh2eiR-da-k5b_fMyjmbMrXC-eoy26zk_1riJAJBBkGPUvmg6TKFVecxuYhsBu_FX_4zJUT_tRz1PUazEjYjZqLc9nfUDF4Ql0MlSkOlO6rnjKyZscBj_rRTeDq0]--></g></svg>