<?xml version="1.0" encoding="us-ascii" standalone="no"?>
<svg xmlns="http://www.w3.org/2000/svg" contentStyleType="text/css"
     height="346px" preserveAspectRatio="none" style="width:509px;height:346px;background:#FFFFFF;" version="1.1"
     viewBox="0 0 509 346" width="509px" zoomAndPan="magnify">
    <defs/>
    <g><!--class airplanedata-->
        <g id="elem_airplanedata">
            <rect fill="#FFFFFF" height="92.8906" id="airplanedata" rx="2.5" ry="2.5"
                  style="stroke:#000000;stroke-width:1.0;" width="135" x="16.5" y="20"/>
            <ellipse cx="37.15" cy="34" fill="#FFFFFF" rx="9" ry="9" style="stroke:#000000;stroke-width:1.0;"/>
            <path d="M39.4938,29.6719 C38.5563,29.2344 37.9625,29.0938 37.0875,29.0938 C34.4625,29.0938 32.4625,31.1719 32.4625,33.8906 L32.4625,35.0156 C32.4625,37.5938 34.5719,39.4844 37.4625,39.4844 C38.6813,39.4844 39.8375,39.1875 40.5875,38.6406 C41.1656,38.2344 41.4938,37.7813 41.4938,37.3906 C41.4938,36.9375 41.1031,36.5469 40.6344,36.5469 C40.4156,36.5469 40.2125,36.625 40.025,36.8125 C39.5719,37.2969 39.5719,37.2969 39.3844,37.3906 C38.9625,37.6563 38.275,37.7813 37.5094,37.7813 C35.4625,37.7813 34.1656,36.6875 34.1656,34.9844 L34.1656,33.8906 C34.1656,32.1094 35.4156,30.7969 37.15,30.7969 C37.7281,30.7969 38.3375,30.9531 38.8063,31.2031 C39.2906,31.4844 39.4625,31.7031 39.5563,32.1094 C39.6188,32.5156 39.65,32.6406 39.7906,32.7656 C39.9313,32.9063 40.1656,33.0156 40.3844,33.0156 C40.65,33.0156 40.9156,32.875 41.0875,32.6563 C41.1969,32.5 41.2281,32.3125 41.2281,31.8906 L41.2281,30.4688 C41.2281,30.0313 41.2125,29.9063 41.1188,29.75 C40.9625,29.4844 40.6813,29.3438 40.3844,29.3438 C40.0875,29.3438 39.8844,29.4375 39.6656,29.75 L39.4938,29.6719 Z "
                  fill="#000000"/>
            <text fill="#000000" font-family="Verdana" font-size="14" lengthAdjust="spacing" textLength="90" x="50.85"
                  y="38.8467">airplanedata
            </text>
            <line style="stroke:#000000;stroke-width:1.0;" x1="17.5" x2="150.5" y1="48" y2="48"/>
            <text fill="#000000" font-family="Verdana" font-size="14" lengthAdjust="spacing" textLength="102" x="22.5"
                  y="64.9951">name: varchar
            </text>
            <text fill="#000000" font-family="Verdana" font-size="14" lengthAdjust="spacing" textLength="123" x="22.5"
                  y="81.292">capacity: integer
            </text>
            <text fill="#000000" font-family="Verdana" font-size="14" lengthAdjust="spacing" textLength="75" x="22.5"
                  y="97.5889">id: varchar
            </text>
            <line style="stroke:#000000;stroke-width:1.0;" x1="17.5" x2="150.5" y1="104.8906" y2="104.8906"/>
        </g><!--class airport-->
        <g id="elem_airport">
            <rect fill="#FFFFFF" height="109.1875" id="airport" rx="2.5" ry="2.5"
                  style="stroke:#000000;stroke-width:1.0;" width="129" x="186.5" y="12"/>
            <ellipse cx="222.45" cy="26" fill="#FFFFFF" rx="9" ry="9" style="stroke:#000000;stroke-width:1.0;"/>
            <path d="M224.7938,21.6719 C223.8563,21.2344 223.2625,21.0938 222.3875,21.0938 C219.7625,21.0938 217.7625,23.1719 217.7625,25.8906 L217.7625,27.0156 C217.7625,29.5938 219.8719,31.4844 222.7625,31.4844 C223.9813,31.4844 225.1375,31.1875 225.8875,30.6406 C226.4656,30.2344 226.7938,29.7813 226.7938,29.3906 C226.7938,28.9375 226.4031,28.5469 225.9344,28.5469 C225.7156,28.5469 225.5125,28.625 225.325,28.8125 C224.8719,29.2969 224.8719,29.2969 224.6844,29.3906 C224.2625,29.6563 223.575,29.7813 222.8094,29.7813 C220.7625,29.7813 219.4656,28.6875 219.4656,26.9844 L219.4656,25.8906 C219.4656,24.1094 220.7156,22.7969 222.45,22.7969 C223.0281,22.7969 223.6375,22.9531 224.1063,23.2031 C224.5906,23.4844 224.7625,23.7031 224.8563,24.1094 C224.9188,24.5156 224.95,24.6406 225.0906,24.7656 C225.2313,24.9063 225.4656,25.0156 225.6844,25.0156 C225.95,25.0156 226.2156,24.875 226.3875,24.6563 C226.4969,24.5 226.5281,24.3125 226.5281,23.8906 L226.5281,22.4688 C226.5281,22.0313 226.5125,21.9063 226.4188,21.75 C226.2625,21.4844 225.9813,21.3438 225.6844,21.3438 C225.3875,21.3438 225.1844,21.4375 224.9656,21.75 L224.7938,21.6719 Z "
                  fill="#000000"/>
            <text fill="#000000" font-family="Verdana" font-size="14" lengthAdjust="spacing" textLength="50" x="239.55"
                  y="30.8467">airport
            </text>
            <line style="stroke:#000000;stroke-width:1.0;" x1="187.5" x2="314.5" y1="40" y2="40"/>
            <text fill="#000000" font-family="Verdana" font-size="14" lengthAdjust="spacing" textLength="102" x="192.5"
                  y="56.9951">name: varchar
            </text>
            <text fill="#000000" font-family="Verdana" font-size="14" lengthAdjust="spacing" textLength="89" x="192.5"
                  y="73.292">city: varchar
            </text>
            <text fill="#000000" font-family="Verdana" font-size="14" lengthAdjust="spacing" textLength="117" x="192.5"
                  y="89.5889">country: varchar
            </text>
            <text fill="#000000" font-family="Verdana" font-size="14" lengthAdjust="spacing" textLength="75" x="192.5"
                  y="105.8857">id: varchar
            </text>
            <line style="stroke:#000000;stroke-width:1.0;" x1="187.5" x2="314.5" y1="113.1875" y2="113.1875"/>
        </g><!--class customerdata-->
        <g id="elem_customerdata">
            <rect fill="#FFFFFF" height="109.1875" id="customerdata" rx="2.5" ry="2.5"
                  style="stroke:#000000;stroke-width:1.0;" width="144" x="12" y="205.5"/>
            <ellipse cx="32.2" cy="219.5" fill="#FFFFFF" rx="9" ry="9" style="stroke:#000000;stroke-width:1.0;"/>
            <path d="M34.5438,215.1719 C33.6063,214.7344 33.0125,214.5938 32.1375,214.5938 C29.5125,214.5938 27.5125,216.6719 27.5125,219.3906 L27.5125,220.5156 C27.5125,223.0938 29.6219,224.9844 32.5125,224.9844 C33.7313,224.9844 34.8875,224.6875 35.6375,224.1406 C36.2156,223.7344 36.5438,223.2813 36.5438,222.8906 C36.5438,222.4375 36.1531,222.0469 35.6844,222.0469 C35.4656,222.0469 35.2625,222.125 35.075,222.3125 C34.6219,222.7969 34.6219,222.7969 34.4344,222.8906 C34.0125,223.1563 33.325,223.2813 32.5594,223.2813 C30.5125,223.2813 29.2156,222.1875 29.2156,220.4844 L29.2156,219.3906 C29.2156,217.6094 30.4656,216.2969 32.2,216.2969 C32.7781,216.2969 33.3875,216.4531 33.8563,216.7031 C34.3406,216.9844 34.5125,217.2031 34.6063,217.6094 C34.6688,218.0156 34.7,218.1406 34.8406,218.2656 C34.9813,218.4063 35.2156,218.5156 35.4344,218.5156 C35.7,218.5156 35.9656,218.375 36.1375,218.1563 C36.2469,218 36.2781,217.8125 36.2781,217.3906 L36.2781,215.9688 C36.2781,215.5313 36.2625,215.4063 36.1688,215.25 C36.0125,214.9844 35.7313,214.8438 35.4344,214.8438 C35.1375,214.8438 34.9344,214.9375 34.7156,215.25 L34.5438,215.1719 Z "
                  fill="#000000"/>
            <text fill="#000000" font-family="Verdana" font-size="14" lengthAdjust="spacing" textLength="100" x="45.8"
                  y="224.3467">customerdata
            </text>
            <line style="stroke:#000000;stroke-width:1.0;" x1="13" x2="155" y1="233.5" y2="233.5"/>
            <text fill="#000000" font-family="Verdana" font-size="14" lengthAdjust="spacing" textLength="132" x="18"
                  y="250.4951">firstname: varchar
            </text>
            <text fill="#000000" font-family="Verdana" font-size="14" lengthAdjust="spacing" textLength="128" x="18"
                  y="266.792">lastname: varchar
            </text>
            <text fill="#000000" font-family="Verdana" font-size="14" lengthAdjust="spacing" textLength="70" x="18"
                  y="283.0889">dob: date
            </text>
            <text fill="#000000" font-family="Verdana" font-size="14" lengthAdjust="spacing" textLength="75" x="18"
                  y="299.3857">id: varchar
            </text>
            <line style="stroke:#000000;stroke-width:1.0;" x1="13" x2="155" y1="306.6875" y2="306.6875"/>
        </g><!--class flightdata-->
        <g id="elem_flightdata">
            <rect fill="#FFFFFF" height="158.0781" id="flightdata" rx="2.5" ry="2.5"
                  style="stroke:#000000;stroke-width:1.0;" width="180" x="322" y="181"/>
            <ellipse cx="372.75" cy="195" fill="#FFFFFF" rx="9" ry="9" style="stroke:#000000;stroke-width:1.0;"/>
            <path d="M375.0938,190.6719 C374.1563,190.2344 373.5625,190.0938 372.6875,190.0938 C370.0625,190.0938 368.0625,192.1719 368.0625,194.8906 L368.0625,196.0156 C368.0625,198.5938 370.1719,200.4844 373.0625,200.4844 C374.2813,200.4844 375.4375,200.1875 376.1875,199.6406 C376.7656,199.2344 377.0938,198.7813 377.0938,198.3906 C377.0938,197.9375 376.7031,197.5469 376.2344,197.5469 C376.0156,197.5469 375.8125,197.625 375.625,197.8125 C375.1719,198.2969 375.1719,198.2969 374.9844,198.3906 C374.5625,198.6563 373.875,198.7813 373.1094,198.7813 C371.0625,198.7813 369.7656,197.6875 369.7656,195.9844 L369.7656,194.8906 C369.7656,193.1094 371.0156,191.7969 372.75,191.7969 C373.3281,191.7969 373.9375,191.9531 374.4063,192.2031 C374.8906,192.4844 375.0625,192.7031 375.1563,193.1094 C375.2188,193.5156 375.25,193.6406 375.3906,193.7656 C375.5313,193.9063 375.7656,194.0156 375.9844,194.0156 C376.25,194.0156 376.5156,193.875 376.6875,193.6563 C376.7969,193.5 376.8281,193.3125 376.8281,192.8906 L376.8281,191.4688 C376.8281,191.0313 376.8125,190.9063 376.7188,190.75 C376.5625,190.4844 376.2813,190.3438 375.9844,190.3438 C375.6875,190.3438 375.4844,190.4375 375.2656,190.75 L375.0938,190.6719 Z "
                  fill="#000000"/>
            <text fill="#000000" font-family="Verdana" font-size="14" lengthAdjust="spacing" textLength="71" x="390.25"
                  y="199.8467">flightdata
            </text>
            <line style="stroke:#000000;stroke-width:1.0;" x1="323" x2="501" y1="209" y2="209"/>
            <text fill="#000000" font-family="Verdana" font-size="14" lengthAdjust="spacing" textLength="168" x="328"
                  y="225.9951">routedatafrom: varchar
            </text>
            <text fill="#000000" font-family="Verdana" font-size="14" lengthAdjust="spacing" textLength="158" x="328"
                  y="242.292">routedatatoo: varchar
            </text>
            <text fill="#000000" font-family="Verdana" font-size="14" lengthAdjust="spacing" textLength="154" x="328"
                  y="258.5889">etddatetime: varchar
            </text>
            <text fill="#000000" font-family="Verdana" font-size="14" lengthAdjust="spacing" textLength="153" x="328"
                  y="274.8857">etadatetime: varchar
            </text>
            <text fill="#000000" font-family="Verdana" font-size="14" lengthAdjust="spacing" textLength="161" x="328"
                  y="291.1826">flightduration: integer
            </text>
            <text fill="#000000" font-family="Verdana" font-size="14" lengthAdjust="spacing" textLength="133" x="328"
                  y="307.4795">airplaneid: varchar
            </text>
            <text fill="#000000" font-family="Verdana" font-size="14" lengthAdjust="spacing" textLength="75" x="328"
                  y="323.7764">id: varchar
            </text>
            <line style="stroke:#000000;stroke-width:1.0;" x1="323" x2="501" y1="331.0781" y2="331.0781"/>
        </g><!--class routedata-->
        <g id="elem_routedata">
            <rect fill="#FFFFFF" height="92.8906" id="routedata" rx="2.5" ry="2.5"
                  style="stroke:#000000;stroke-width:1.0;" width="123" x="350.5" y="20"/>
            <ellipse cx="374.3" cy="34" fill="#FFFFFF" rx="9" ry="9" style="stroke:#000000;stroke-width:1.0;"/>
            <path d="M376.6438,29.6719 C375.7063,29.2344 375.1125,29.0938 374.2375,29.0938 C371.6125,29.0938 369.6125,31.1719 369.6125,33.8906 L369.6125,35.0156 C369.6125,37.5938 371.7219,39.4844 374.6125,39.4844 C375.8313,39.4844 376.9875,39.1875 377.7375,38.6406 C378.3156,38.2344 378.6438,37.7813 378.6438,37.3906 C378.6438,36.9375 378.2531,36.5469 377.7844,36.5469 C377.5656,36.5469 377.3625,36.625 377.175,36.8125 C376.7219,37.2969 376.7219,37.2969 376.5344,37.3906 C376.1125,37.6563 375.425,37.7813 374.6594,37.7813 C372.6125,37.7813 371.3156,36.6875 371.3156,34.9844 L371.3156,33.8906 C371.3156,32.1094 372.5656,30.7969 374.3,30.7969 C374.8781,30.7969 375.4875,30.9531 375.9563,31.2031 C376.4406,31.4844 376.6125,31.7031 376.7063,32.1094 C376.7688,32.5156 376.8,32.6406 376.9406,32.7656 C377.0813,32.9063 377.3156,33.0156 377.5344,33.0156 C377.8,33.0156 378.0656,32.875 378.2375,32.6563 C378.3469,32.5 378.3781,32.3125 378.3781,31.8906 L378.3781,30.4688 C378.3781,30.0313 378.3625,29.9063 378.2688,29.75 C378.1125,29.4844 377.8313,29.3438 377.5344,29.3438 C377.2375,29.3438 377.0344,29.4375 376.8156,29.75 L376.6438,29.6719 Z "
                  fill="#000000"/>
            <text fill="#000000" font-family="Verdana" font-size="14" lengthAdjust="spacing" textLength="71" x="388.7"
                  y="38.8467">routedata
            </text>
            <line style="stroke:#000000;stroke-width:1.0;" x1="351.5" x2="472.5" y1="48" y2="48"/>
            <text fill="#000000" font-family="Verdana" font-size="14" lengthAdjust="spacing" textLength="111" x="356.5"
                  y="64.9951">fromm: varchar
            </text>
            <text fill="#000000" font-family="Verdana" font-size="14" lengthAdjust="spacing" textLength="87" x="356.5"
                  y="81.292">too: varchar
            </text>
            <text fill="#000000" font-family="Verdana" font-size="14" lengthAdjust="spacing" textLength="75" x="356.5"
                  y="97.5889">id: varchar
            </text>
            <line style="stroke:#000000;stroke-width:1.0;" x1="351.5" x2="472.5" y1="104.8906" y2="104.8906"/>
        </g><!--link routedata to flightdata-->
        <g id="link_routedata_flightdata">
            <path d="M412,113.341 C412,113.341 412,160.751 412,160.751 " fill="none"
                  id="routedata-to-flightdata" style="stroke:#595959;stroke-width:1.0;"/>
            <polygon fill="none" points="419,160.751,412,180.751,405,160.751,419,160.751"
                     style="stroke:#595959;stroke-width:1.0;"/>
            <text fill="#000000" font-family="Verdana" font-size="13" lengthAdjust="spacing" textLength="11" x="400"
                  y="133.1129">id
            </text>
        </g><!--SRC=[TPB1RiCm28RlVWhMNTVZ3ishJ9j4RTAWnIOYP58rxTrhHrqJjurz-u6Ft-0NwoWI33roSYO3cC1Hp2H2O2LlBCcDtvm6L8pGSo8x3mIYrebpliTn16JDW4G13U7N0K32I0tyeFeEjGWU1_HivmOu6Pre5ZaiENyhLePlOMR4Mf0fcTRQCwoVnlmcqiLYophQGuES_2W6EJQGAscBtlPywcnXgqmsJwDLYHNg5Z6HAa0MIWVZkzva-5I_jfmKouggiVwlO-rqm_ZDpdKcsMxjzzvc3N5BVJdxZzVtGxblyt_wt7_1UZG03Umux2u0]-->
    </g>
</svg>